{
	"patcher" : 	{
		"fileversion" : 1,
		"appversion" : 		{
			"major" : 8,
			"minor" : 1,
			"revision" : 0,
			"architecture" : "x64",
			"modernui" : 1
		}
,
		"classnamespace" : "box",
		"rect" : [ 59.0, 104.0, 951.0, 718.0 ],
		"bglocked" : 0,
		"openinpresentation" : 0,
		"default_fontsize" : 12.0,
		"default_fontface" : 0,
		"default_fontname" : "Arial",
		"gridonopen" : 1,
		"gridsize" : [ 15.0, 15.0 ],
		"gridsnaponopen" : 1,
		"objectsnaponopen" : 1,
		"statusbarvisible" : 2,
		"toolbarvisible" : 1,
		"lefttoolbarpinned" : 0,
		"toptoolbarpinned" : 0,
		"righttoolbarpinned" : 0,
		"bottomtoolbarpinned" : 0,
		"toolbars_unpinned_last_save" : 0,
		"tallnewobj" : 0,
		"boxanimatetime" : 200,
		"enablehscroll" : 1,
		"enablevscroll" : 1,
		"devicewidth" : 0.0,
		"description" : "",
		"digest" : "",
		"tags" : "",
		"style" : "",
		"subpatcher_template" : "",
		"boxes" : [ 			{
				"box" : 				{
					"id" : "obj-18",
					"maxclass" : "message",
					"numinlets" : 2,
					"numoutlets" : 1,
					"outlettype" : [ "" ],
					"patching_rect" : [ 708.0, 205.0, 69.0, 22.0 ],
					"text" : "read a.odot"
				}

			}
, 			{
				"box" : 				{
					"id" : "obj-16",
					"maxclass" : "newobj",
					"numinlets" : 1,
					"numoutlets" : 0,
					"patching_rect" : [ 750.0, 252.0, 100.0, 22.0 ],
					"text" : "simpletext"
				}

			}
, 			{
				"box" : 				{
					"id" : "obj-17",
					"maxclass" : "toggle",
					"numinlets" : 1,
					"numoutlets" : 1,
					"outlettype" : [ "int" ],
					"parameter_enable" : 0,
					"patching_rect" : [ 702.0, 96.0, 24.0, 24.0 ]
				}

			}
, 			{
				"box" : 				{
					"id" : "obj-15",
					"maxclass" : "newobj",
					"numinlets" : 2,
					"numoutlets" : 1,
					"outlettype" : [ "bang" ],
					"patching_rect" : [ 677.0, 152.0, 100.0, 22.0 ],
					"text" : "metro 1"
				}

			}
, 			{
				"box" : 				{
					"fontface" : 0,
					"fontsize" : 12.0,
					"id" : "obj-14",
					"linecount" : 11,
					"maxclass" : "o.compose",
					"numinlets" : 2,
					"numoutlets" : 1,
					"outlettype" : [ "" ],
					"patching_rect" : [ 374.0, 288.5, 323.0, 160.0 ],
					"saved_bundle_data" : [ 35, 98, 117, 110, 100, 108, 101, 0, 0, 0, 0, 0, 0, 0, 0, 0, 0, 0, 0, 28, 47, 102, 105, 108, 101, 47, 97, 108, 108, 70, 105, 108, 101, 115, 76, 111, 97, 100, 101, 100, 0, 0, 0, 0, 44, 84, 0, 0, 0, 0, 0, -36, 47, 102, 105, 108, 101, 0, 0, 0, 44, 46, 46, 46, 0, 0, 0, 0, 0, 0, 0, 64, 35, 98, 117, 110, 100, 108, 101, 0, 0, 0, 0, 0, 0, 0, 0, 0, 0, 0, 0, 20, 47, 110, 97, 109, 101, 0, 0, 0, 44, 115, 0, 0, 97, 46, 111, 100, 111, 116, 0, 0, 0, 0, 0, 20, 47, 115, 116, 97, 116, 117, 115, 0, 44, 115, 0, 0, 108, 111, 97, 100, 101, 100, 0, 0, 0, 0, 0, 64, 35, 98, 117, 110, 100, 108, 101, 0, 0, 0, 0, 0, 0, 0, 0, 0, 0, 0, 0, 20, 47, 110, 97, 109, 101, 0, 0, 0, 44, 115, 0, 0, 98, 46, 111, 100, 111, 116, 0, 0, 0, 0, 0, 20, 47, 115, 116, 97, 116, 117, 115, 0, 44, 115, 0, 0, 108, 111, 97, 100, 101, 100, 0, 0, 0, 0, 0, 64, 35, 98, 117, 110, 100, 108, 101, 0, 0, 0, 0, 0, 0, 0, 0, 0, 0, 0, 0, 20, 47, 110, 97, 109, 101, 0, 0, 0, 44, 115, 0, 0, 99, 46, 111, 100, 111, 116, 0, 0, 0, 0, 0, 20, 47, 115, 116, 97, 116, 117, 115, 0, 44, 115, 0, 0, 108, 111, 97, 100, 101, 100, 0, 0 ],
					"saved_bundle_length" : 272,
					"text" : "/file/allFilesLoaded : true,\n/file : [{\n\t/name : \"a.odot\",\n\t/status : \"loaded\"\n}, {\n\t/name : \"b.odot\",\n\t/status : \"loaded\"\n}, {\n\t/name : \"c.odot\",\n\t/status : \"loaded\"\n}]"
				}

			}
, 			{
				"box" : 				{
					"id" : "obj-10",
					"maxclass" : "message",
					"numinlets" : 2,
					"numoutlets" : 1,
					"outlettype" : [ "" ],
					"patching_rect" : [ 502.0, 219.0, 142.0, 22.0 ],
					"text" : "read a.odot b.odot c.odot"
				}

			}
, 			{
				"box" : 				{
					"fontface" : 0,
					"fontsize" : 12.0,
					"id" : "obj-13",
					"linecount" : 21,
					"maxclass" : "o.expr.codebox",
					"numinlets" : 1,
					"numoutlets" : 2,
					"outlettype" : [ "FullPacket", "FullPacket" ],
					"patching_rect" : [ 887.0, -56.0, 673.0, 304.0 ],
					"text" : "\n/cond = quote(\n    lambda([list],\n        if( length(list) % 2 == 0 ,\n            map(\n                lambda([t,e],\n                    if( eval(t), eval(e) )\n                ), list[[ aseq(0, length(list)-1, 2)]], list[[ aseq(1, length(list)-1, 2) ]]\n            )\n        )\n    )\n),\n\n/foo = /cond([\n    quote(/a == 1),\n    quote(/foo = 111),\n\n    quote(/a == 2),\n    quote(/foo = 222)\n\n])"
				}

			}
, 			{
				"box" : 				{
					"fontface" : 0,
					"fontsize" : 12.0,
					"id" : "obj-12",
					"maxclass" : "o.compose",
					"numinlets" : 2,
					"numoutlets" : 1,
					"outlettype" : [ "" ],
					"patching_rect" : [ 420.0, 110.0, 64.0, 24.0 ],
					"saved_bundle_data" : [ 35, 98, 117, 110, 100, 108, 101, 0, 0, 0, 0, 0, 0, 0, 0, 0, 0, 0, 0, 12, 47, 97, 0, 0, 44, 105, 0, 0, 0, 0, 0, 2 ],
					"saved_bundle_length" : 32,
					"text" : "/a : 2"
				}

			}
, 			{
				"box" : 				{
					"fontface" : 0,
					"fontsize" : 12.0,
					"id" : "obj-11",
					"linecount" : 10,
					"maxclass" : "o.compose",
					"numinlets" : 2,
					"numoutlets" : 1,
					"outlettype" : [ "" ],
					"patching_rect" : [ 356.0, 468.0, 474.0, 146.0 ],
					"saved_bundle_data" : [ 35, 98, 117, 110, 100, 108, 101, 0, 0, 0, 0, 0, 0, 0, 0, 0, 0, 0, 0, 12, 47, 97, 0, 0, 44, 105, 0, 0, 0, 0, 0, 2, 0, 0, 0, 88, 47, 108, 105, 115, 116, 0, 0, 0, 44, 115, 115, 115, 115, 0, 0, 0, 47, 97, 32, 61, 61, 32, 49, 0, 10, 32, 32, 32, 32, 32, 32, 32, 32, 47, 102, 111, 111, 32, 61, 32, 49, 49, 49, 10, 32, 32, 32, 32, 0, 0, 0, 0, 47, 97, 32, 61, 61, 32, 50, 0, 10, 32, 32, 32, 32, 32, 32, 32, 32, 47, 102, 111, 111, 32, 61, 32, 50, 50, 50, 10, 32, 32, 32, 32, 0, 0, 0, 0, 0, 0, 0, 16, 47, 49, 0, 0, 44, 105, 105, 0, 0, 0, 0, 0, 0, 0, 0, 2, 0, 0, 0, 16, 47, 50, 0, 0, 44, 105, 105, 0, 0, 0, 0, 1, 0, 0, 0, 3, 0, 0, 0, 12, 47, 116, 49, 0, 44, 105, 0, 0, 0, 0, 0, 0, 0, 0, 0, 16, 47, 116, 0, 0, 44, 105, 105, 0, 0, 0, 0, 0, 0, 0, 0, 0 ],
					"saved_bundle_length" : 200,
					"text" : "/a : 2,\n/list : [\"/a == 1\", \"\n        /foo = 111\n    \", \"/a == 2\", \"\n        /foo = 222\n    \"],\n/1 : [0, 2],\n/2 : [1, 3],\n/t1 : 0,\n/t : [0, 0]"
				}

			}
, 			{
				"box" : 				{
					"id" : "obj-9",
					"maxclass" : "newobj",
					"numinlets" : 1,
					"numoutlets" : 1,
					"outlettype" : [ "" ],
					"patching_rect" : [ 132.0, 192.0, 100.0, 22.0 ],
					"text" : "absolutepath"
				}

			}
, 			{
				"box" : 				{
					"id" : "obj-8",
					"maxclass" : "newobj",
					"numinlets" : 1,
					"numoutlets" : 1,
					"outlettype" : [ "" ],
					"patching_rect" : [ 129.0, 362.0, 100.0, 22.0 ],
					"saved_object_attributes" : 					{
						"filename" : "",
						"parameter_enable" : 0
					}
,
					"text" : "js"
				}

			}
, 			{
				"box" : 				{
					"id" : "obj-7",
					"maxclass" : "newobj",
					"numinlets" : 1,
					"numoutlets" : 4,
					"outlettype" : [ "", "", "", "" ],
					"patching_rect" : [ 129.0, 310.0, 100.0, 22.0 ],
					"saved_object_attributes" : 					{
						"embed" : 0
					}
,
					"text" : "coll"
				}

			}
, 			{
				"box" : 				{
					"id" : "obj-4",
					"maxclass" : "newobj",
					"numinlets" : 1,
					"numoutlets" : 3,
					"outlettype" : [ "", "bang", "int" ],
					"patching_rect" : [ 134.0, 256.0, 100.0, 22.0 ],
					"text" : "text test.odot"
				}

			}
, 			{
				"box" : 				{
					"id" : "obj-6",
					"maxclass" : "button",
					"numinlets" : 1,
					"numoutlets" : 1,
					"outlettype" : [ "bang" ],
					"parameter_enable" : 0,
					"patching_rect" : [ 538.0, 161.0, 30.0, 30.0 ]
				}

			}
, 			{
				"box" : 				{
					"id" : "obj-5",
					"maxclass" : "message",
					"numinlets" : 2,
					"numoutlets" : 1,
					"outlettype" : [ "" ],
					"patching_rect" : [ 228.0, 128.0, 50.0, 22.0 ],
					"text" : "read"
				}

			}
, 			{
				"box" : 				{
					"fontface" : 0,
					"fontsize" : 12.0,
					"id" : "obj-3",
					"linecount" : 4,
					"maxclass" : "o.compose",
					"numinlets" : 2,
					"numoutlets" : 1,
					"outlettype" : [ "" ],
					"patching_rect" : [ 279.0, 280.0, 71.0, 65.0 ],
					"saved_bundle_data" : [ 35, 98, 117, 110, 100, 108, 101, 0, 0, 0, 0, 0, 0, 0, 0, 0, 0, 0, 0, 12, 47, 97, 0, 0, 44, 105, 0, 0, 0, 0, 0, 1, 0, 0, 0, 12, 47, 100, 0, 0, 44, 105, 0, 0, 0, 0, 0, 4, 0, 0, 0, 12, 47, 98, 0, 0, 44, 105, 0, 0, 0, 0, 0, 2, 0, 0, 0, 12, 47, 99, 0, 0, 44, 105, 0, 0, 0, 0, 0, 3 ],
					"saved_bundle_length" : 80,
					"text" : "/a : 1,\n/d : 4,\n/b : 2,\n/c : 3"
				}

			}
, 			{
				"box" : 				{
					"fontface" : 0,
					"fontsize" : 12.0,
					"id" : "obj-2",
					"maxclass" : "o.compose",
					"numinlets" : 2,
					"numoutlets" : 1,
					"outlettype" : [ "" ],
					"patching_rect" : [ 337.0, 106.0, 64.0, 24.0 ],
					"saved_bundle_data" : [ 35, 98, 117, 110, 100, 108, 101, 0, 0, 0, 0, 0, 0, 0, 0, 0, 0, 0, 0, 12, 47, 97, 0, 0, 44, 105, 0, 0, 0, 0, 0, 1 ],
					"saved_bundle_length" : 32,
					"text" : "/a : 1"
				}

			}
, 			{
				"box" : 				{
					"id" : "obj-1",
					"maxclass" : "newobj",
					"numinlets" : 1,
					"numoutlets" : 3,
					"outlettype" : [ "FullPacket", "FullPacket", "FullPacket" ],
					"patching_rect" : [ 337.0, 219.0, 60.0, 22.0 ],
					"text" : "o.expr.file"
				}

			}
 ],
		"lines" : [ 			{
				"patchline" : 				{
					"destination" : [ "obj-14", 1 ],
					"source" : [ "obj-1", 1 ]
				}

			}
, 			{
				"patchline" : 				{
					"destination" : [ "obj-3", 1 ],
					"source" : [ "obj-1", 0 ]
				}

			}
, 			{
				"patchline" : 				{
					"destination" : [ "obj-1", 0 ],
					"source" : [ "obj-10", 0 ]
				}

			}
, 			{
				"patchline" : 				{
					"destination" : [ "obj-1", 0 ],
					"order" : 1,
					"source" : [ "obj-12", 0 ]
				}

			}
, 			{
				"patchline" : 				{
					"destination" : [ "obj-13", 0 ],
					"order" : 0,
					"source" : [ "obj-12", 0 ]
				}

			}
, 			{
				"patchline" : 				{
					"destination" : [ "obj-11", 1 ],
					"source" : [ "obj-13", 0 ]
				}

			}
, 			{
				"patchline" : 				{
					"destination" : [ "obj-18", 0 ],
					"source" : [ "obj-15", 0 ]
				}

			}
, 			{
				"patchline" : 				{
					"destination" : [ "obj-15", 0 ],
					"source" : [ "obj-17", 0 ]
				}

			}
, 			{
				"patchline" : 				{
					"destination" : [ "obj-16", 0 ],
					"source" : [ "obj-18", 0 ]
				}

			}
, 			{
				"patchline" : 				{
					"destination" : [ "obj-1", 0 ],
					"order" : 1,
					"source" : [ "obj-2", 0 ]
				}

			}
, 			{
				"patchline" : 				{
					"destination" : [ "obj-13", 0 ],
					"order" : 0,
					"source" : [ "obj-2", 0 ]
				}

			}
, 			{
				"patchline" : 				{
					"destination" : [ "obj-1", 0 ],
					"source" : [ "obj-5", 0 ]
				}

			}
, 			{
				"patchline" : 				{
					"destination" : [ "obj-1", 0 ],
					"source" : [ "obj-6", 0 ]
				}

			}
 ],
		"dependency_cache" : [ 			{
				"name" : "o.expr.file.mxo",
				"type" : "iLaX"
			}
, 			{
				"name" : "o.compose.mxo",
				"type" : "iLaX"
			}
, 			{
				"name" : "o.expr.codebox.mxo",
				"type" : "iLaX"
			}
, 			{
				"name" : "simpletext.mxo",
				"type" : "iLaX"
			}
 ],
		"autosave" : 0
	}

}
